<svg width="275" height="29" fill="none" xmlns="http://www.w3.org/2000/svg"><path d="M261.632 28.907c-8.259 0-12.614-2.936-12.582-9.291h5.807c.226 2.548 2.323 4.162 6.775 4.194 4.195 0 6.485-1.42 6.485-3.55 0-1.87-1.516-2.806-4.742-3.354l-3.356-.581c-5.13-.903-10.227-2.258-10.227-8.163 0-5.13 4.323-8.162 11.905-8.162 7.065 0 11.969 2.484 12.034 9.195h-5.775c-.42-2.452-2.323-4.098-6.388-4.098-3.678 0-5.614 1.259-5.614 3.356 0 1.645 1.323 2.678 4.098 3.194l2.935.516c5.162.936 11.518 1.807 11.518 8.291 0 5.388-4.42 8.453-12.873 8.453zM245.015.904V6.29h-10.163v21.713H228.4V6.291h-10.131V.904h26.746zm-43.303 28.003c-8.259 0-12.614-2.936-12.582-9.291h5.807c.226 2.548 2.323 4.162 6.775 4.194 4.195 0 6.485-1.42 6.485-3.55 0-1.87-1.516-2.806-4.742-3.354l-3.356-.581c-5.129-.903-10.227-2.258-10.227-8.163 0-5.13 4.323-8.162 11.905-8.162 7.065 0 11.969 2.484 12.034 9.195h-5.775c-.42-2.452-2.323-4.098-6.388-4.098-3.678 0-5.614 1.259-5.614 3.356 0 1.645 1.323 2.678 4.098 3.194l2.935.516c5.162.936 11.518 1.807 11.518 8.291 0 5.388-4.42 8.453-12.873 8.453zm-63.85 0c-8.775 0-14.84-5.936-14.84-14.453 0-8.518 6.065-14.454 14.84-14.454 5.937 0 12.034 2.646 13.357 10.614h-6.162c-1.161-3.484-3.839-5.033-7.195-5.033-4.807 0-8.485 3.646-8.485 8.873 0 5.194 3.678 8.872 8.485 8.872 3.356 0 6.034-1.549 7.195-5.065h6.162c-1.323 8-7.356 10.646-13.357 10.646zm-23.457-.903l-1.678-4.549H99.371l-1.678 4.55h-6.646L101.532.903h9.034l10.517 27.1h-6.678zm-13.228-9.42h9.744L106.662 7h-1.226l-4.259 11.582zm-13.93 9.42h-6.388l-4.452-8.065h-8.744v8.065h-6.42V.904h14.228c7.259 0 11.098 3.387 11.098 9.71 0 3.775-1.839 6.518-4.613 8.034l5.29 9.356zM67.663 6.292v8.71h7.453c3.259 0 5.065-1.484 5.065-4.355 0-2.871-1.806-4.355-5.065-4.355h-7.453zM49.684 28.004l-1.677-4.549H34.65l-1.678 4.55h-6.646L36.812.903h9.033l10.518 27.1h-6.679zm-13.227-9.42H46.2L41.94 7h-1.226l-4.258 11.583zM0 28.004V.904h6.42v21.712h15.615v5.388H0zm161.708-16.006L168.141.862h3.823l13.86 24.006-1.799 3.116h-21l3.37-5.837h11.117l-7.455-12.913-1.604 2.764h-6.745z" fill="#fff"/><path d="M159.814 15.29h6.745l-7.357 12.716h-2.892l-1.924-3.332 5.428-9.385z" fill="#53B5FF"/></svg>