<svg xmlns="http://www.w3.org/2000/svg" width="120" height="120" fill="none" viewBox="0 0 120 120"><circle cx="60" cy="60" r="60" fill="#0B0F18"/><ellipse cx="59.5" cy="60" fill="url(#paint0_linear_2146_31081)" fill-opacity=".3" rx="49.5" ry="50"/><path fill="url(#paint1_linear_2146_31081)" fill-opacity=".5" fill-rule="evenodd" d="M59.593 118c32.31 0 58.5-26.191 58.5-58.5S91.903 1 59.593 1c-32.308 0-58.5 26.191-58.5 58.5s26.192 58.5 58.5 58.5Zm0-3.28c30.463 0 55.158-24.723 55.158-55.22S90.056 4.28 59.593 4.28C29.131 4.28 4.436 29.003 4.436 59.5s24.695 55.22 55.157 55.22Z" clip-rule="evenodd"/><ellipse cx="59.938" cy="55.05" fill="url(#paint2_linear_2146_31081)" rx="40.688" ry="37.242"/><ellipse cx="59.938" cy="55.05" fill="url(#paint3_linear_2146_31081)" rx="40.688" ry="37.242"/><path fill="url(#paint4_radial_2146_31081)" fill-rule="evenodd" d="M59.938 92.292c22.47 0 40.687-16.674 40.687-37.242 0-20.568-18.216-37.242-40.688-37.242" clip-rule="evenodd"/><path stroke="url(#paint5_linear_2146_31081)" d="M100.125 56.05c0 20.251-17.95 36.742-40.188 36.742-22.237 0-40.187-16.49-40.187-36.742 0-20.251 17.95-36.742 40.188-36.742 22.237 0 40.187 16.49 40.187 36.742Z"/><path stroke="url(#paint6_linear_2146_31081)" d="M100.5 52c0 17.853-18.026 32.5-40.5 32.5S19.5 69.853 19.5 52 37.526 19.5 60 19.5s40.5 14.647 40.5 32.5Z"/><path stroke="url(#paint7_linear_2146_31081)" d="M107 57c0 24.3-20.49 44-47 44S12 81.3 12 57"/><circle cx="60" cy="60" r="59" stroke="url(#paint8_linear_2146_31081)" stroke-width="2"/><path fill="url(#paint9_linear_2146_31081)" d="M46.113 106.566C28.909 99.972 15 83.164 15 62.934 15 37.013 35.147 16 60 16s45 21.013 45 46.934c0 20.23-13.909 36.538-31.113 43.132L64.5 80c-.636-1.934.766-3.226 1.636-3.794C74.5 77 76.364 69.1 76.364 62.934c0-9.426-7.327-16.067-16.364-16.067s-16.364 6.641-16.364 16.067C43.636 68.84 44 77 53.5 76c1.029.739 2.636 2.566 2 4.5l-9.387 26.066Z"/><path fill="url(#paint10_linear_2146_31081)" d="M44.477 103C27.273 96.695 15 80.212 15 60.87 15 36.09 35.147 16 60 16s45 20.09 45 44.87c0 19.342-12.273 35.825-29.477 42.13l-9.387-26.832c6.224-2.31 10.228-8.287 10.228-15.297 0-9.012-7.327-16.317-16.364-16.317S43.636 51.86 43.636 60.871c0 7.01 4.004 12.987 10.228 15.297L44.477 103Z"/><path fill="url(#paint11_linear_2146_31081)" fill-opacity=".3" d="M44.477 103C27.273 96.695 15 80.212 15 60.87 15 36.09 35.147 16 60 16s45 20.09 45 44.87c0 19.342-12.273 35.825-29.477 42.13l-9.387-26.832c6.224-2.31 10.228-8.287 10.228-15.297 0-9.012-7.327-16.317-16.364-16.317S43.636 51.86 43.636 60.871c0 7.01 4.004 12.987 10.228 15.297L44.477 103Z"/><path stroke="url(#paint12_radial_2146_31081)" stroke-width=".65" d="M53.452 76.358 44.28 102.58C27.36 96.237 15.325 79.955 15.325 60.87c0-24.6 20-44.545 44.675-44.545 24.674 0 44.675 19.945 44.675 44.546 0 19.084-12.036 35.366-28.954 41.709l-9.173-26.222c6.189-2.438 10.14-8.463 10.14-15.487 0-9.192-7.472-16.642-16.688-16.642-9.216 0-16.689 7.45-16.689 16.642 0 7.024 3.953 13.05 10.141 15.487Z" opacity=".566"/><ellipse cx="99.063" cy="56.344" fill="#152137" rx=".944" ry=".938" transform="rotate(-90 99.063 56.344)"/><ellipse cx="97.938" cy="52.944" fill="#152137" rx=".944" ry=".938" transform="rotate(-90 97.938 52.944)"/><ellipse cx="97.938" cy="68.056" fill="#152137" rx=".944" ry=".938" transform="rotate(-90 97.938 68.056)"/><ellipse cx="99.063" cy="64.278" fill="#152137" rx=".944" ry=".938" transform="rotate(-90 99.063 64.278)"/><ellipse cx="99.062" cy="64.281" fill="#2ECFF9" rx=".341" ry=".321" transform="rotate(-90 99.062 64.28)"/><ellipse cx="97.921" cy="52.929" fill="#2ECFF9" rx=".341" ry=".321" transform="rotate(-90 97.92 52.93)"/><g filter="url(#filter0_d_2146_31081)"><ellipse cx="99.25" cy="60.311" fill="url(#paint13_radial_2146_31081)" rx="1.511" ry=".75" transform="rotate(-90 99.25 60.311)"/></g><mask id="mask0_2146_31081" width="54" height="65" x="33" y="5" maskUnits="userSpaceOnUse" style="mask-type:alpha"><path fill="#D9D9D9" d="m33 5 12.5 64.5h29L87 5H33Z"/></mask><g mask="url(#mask0_2146_31081)"><g filter="url(#filter1_d_2146_31081)"><path fill="#24C5F7" d="M84.5 12h-4.523v1.742H84.5z"/></g><path fill="#24C5F7" d="M78.146 12h-4.523v1.742h4.523zM65.439 12H63.93v1.742h1.508zM62.1 12h-1.508v1.742H62.1zM58.762 12h-4.523v1.742h4.523z" opacity=".25"/><g filter="url(#filter2_d_2146_31081)"><path fill="#24C5F7" d="M52.408 12h-4.523v1.742h4.523z"/></g><path fill="#24C5F7" d="M46.054 12H35.5v1.742h10.554zM71.792 12H67.27v1.742h4.523z" opacity=".25"/><g opacity=".8"><path fill="#24C5F7" d="M40.023 46.84H35.5v1.741h4.523zM46.377 46.84h-4.523v1.741h4.523zM56.07 46.84H54.56v1.741h1.508zM59.408 46.84H57.9v1.741h1.508zM65.762 46.84h-4.523v1.741h4.523z" opacity=".25"/><g filter="url(#filter3_d_2146_31081)"><path fill="#24C5F7" d="M72.115 46.84h-4.523v1.741h4.523z"/></g><path fill="#24C5F7" d="M84.5 46.84H73.946v1.741H84.5z" opacity=".25"/><g filter="url(#filter4_d_2146_31081)"><path fill="#24C5F7" d="M52.73 46.84h-4.522v1.741h4.523z"/></g></g><path fill="#24C5F7" d="M84.5 36.388h-4.523v1.742H84.5zM78.146 36.388h-4.523v1.742h4.523zM65.439 36.388H63.93v1.742h1.508z" opacity=".25"/><g filter="url(#filter5_d_2146_31081)"><path fill="#24C5F7" d="M62.1 36.388h-1.508v1.742H62.1z"/></g><path fill="#24C5F7" d="M58.762 36.388h-4.523v1.742h4.523z" opacity=".25"/><g filter="url(#filter6_d_2146_31081)"><path fill="#24C5F7" d="M52.408 36.388h-4.523v1.742h4.523z"/></g><path fill="#24C5F7" d="M46.054 36.388H35.5v1.742h10.554z" opacity=".25"/><g filter="url(#filter7_d_2146_31081)"><path fill="#24C5F7" d="M71.792 36.388H67.27v1.742h4.523z"/></g><path fill="#24C5F7" d="M84.5 39.872h-4.523v1.742H84.5z" opacity=".25"/><g filter="url(#filter8_d_2146_31081)"><path fill="#24C5F7" d="M78.146 39.872h-8.292v1.742h8.292z"/></g><path fill="#24C5F7" d="M68.454 39.872H63.93v1.742h4.523zM62.1 39.872h-6.031v1.742H62.1zM53.915 39.872h-3.769v1.742h3.77zM40.777 39.872H35.5v1.742h5.277z" opacity=".25"/><g filter="url(#filter9_d_2146_31081)"><path fill="#24C5F7" d="M48.315 39.872h-5.277v1.742h5.277z"/></g><g filter="url(#filter10_d_2146_31081)"><path fill="#24C5F7" d="M84.5 43.355h-9.046v1.742H84.5z"/></g><path fill="#24C5F7" d="M73.73 43.355h-9.8v1.742h9.8z" opacity=".25"/><g filter="url(#filter11_d_2146_31081)"><path fill="#24C5F7" d="M62.1 43.355h-7.538v1.742H62.1z"/></g><path fill="#24C5F7" d="M48.315 43.355H35.5v1.742h12.815zM52.838 43.355h-3.015v1.742h3.015z" opacity=".25"/><g opacity=".03"><g filter="url(#filter12_d_2146_31081)"><path fill="#24C5F7" d="M72.439 64.576h-9.046v1.742h9.046z"/></g><path fill="#24C5F7" d="M61.67 64.576h-9.8v1.742h9.8z" opacity=".25"/><g filter="url(#filter13_d_2146_31081)"><path fill="#24C5F7" d="M50.038 64.576h-7.537v1.742h7.538z"/></g><g filter="url(#filter14_d_2146_31081)"><path fill="#24C5F7" d="M40.777 64.576h-3.015v1.742h3.015z"/></g></g><g opacity=".7"><path fill="#24C5F7" d="M40.023 50.323H35.5v1.742h4.523z" opacity=".25"/><g filter="url(#filter15_d_2146_31081)"><path fill="#24C5F7" d="M50.146 50.323h-8.292v1.742h8.292z"/></g><path fill="#24C5F7" d="M56.07 50.323h-4.524v1.742h4.523z" opacity=".25"/><g filter="url(#filter16_d_2146_31081)"><path fill="#24C5F7" d="M63.93 50.323H57.9v1.742h6.03z"/></g><path fill="#24C5F7" d="M69.854 50.323h-3.77v1.742h3.77z" opacity=".25"/><g filter="url(#filter17_d_2146_31081)"><path fill="#24C5F7" d="M84.5 50.323h-5.277v1.742H84.5z"/></g><path fill="#24C5F7" d="M76.962 50.323h-5.278v1.742h5.278z" opacity=".25"/></g><path fill="#24C5F7" d="M44.546 32.904H35.5v1.742h9.046zM56.07 32.904h-4.524v1.742h4.523zM50.038 32.904h-4.522v1.742h4.523z" opacity=".25"/><g filter="url(#filter18_d_2146_31081)"><path fill="#24C5F7" d="M70.715 32.904H57.9v1.742h12.815z"/></g><path fill="#24C5F7" d="M84.5 32.904H71.685v1.742H84.5zM40.023 22.452H35.5v1.742h4.523zM46.377 22.452h-4.523v1.742h4.523zM56.07 22.452H54.56v1.742h1.508zM59.408 22.452H57.9v1.742h1.508z" opacity=".25"/><g filter="url(#filter19_d_2146_31081)"><path fill="#24C5F7" d="M65.762 22.452h-4.523v1.742h4.523z"/></g><path fill="#24C5F7" d="M72.115 22.452h-4.523v1.742h4.523z" opacity=".25"/><g filter="url(#filter20_d_2146_31081)"><path fill="#24C5F7" d="M84.5 22.452H73.946v1.742H84.5z"/></g><path fill="#24C5F7" d="M52.73 22.452h-4.522v1.742h4.523z" opacity=".25"/><g opacity=".3"><path fill="#24C5F7" d="M40.023 57.291H35.5v1.742h4.523zM46.377 57.291h-4.523v1.742h4.523z" opacity=".25"/><g filter="url(#filter21_d_2146_31081)"><path fill="#24C5F7" d="M56.07 57.291H54.56v1.742h1.508z"/></g><g filter="url(#filter22_d_2146_31081)"><path fill="#24C5F7" d="M59.408 57.291H57.9v1.742h1.508z"/></g><path fill="#24C5F7" d="M65.762 57.291h-4.523v1.742h4.523z" opacity=".25"/><g filter="url(#filter23_d_2146_31081)"><path fill="#24C5F7" d="M72.115 57.291h-4.523v1.742h4.523z"/></g><path fill="#24C5F7" d="M84.5 57.291H73.946v1.742H84.5zM52.73 57.291h-4.522v1.742h4.523z" opacity=".25"/></g><path fill="#24C5F7" d="M40.023 25.936H35.5v1.742h4.523zM50.146 25.936h-8.292v1.742h8.292zM56.07 25.936h-4.524v1.742h4.523z" opacity=".25"/><g filter="url(#filter24_d_2146_31081)"><path fill="#24C5F7" d="M63.93 25.936H57.9v1.742h6.03z"/></g><path fill="#24C5F7" d="M69.854 25.936h-3.77v1.742h3.77zM84.5 25.936h-5.277v1.742H84.5zM76.962 25.936h-5.278v1.742h5.278z" opacity=".25"/><g opacity=".1"><path fill="#24C5F7" d="M40.023 60.775H35.5v1.742h4.523z" opacity=".25"/><g filter="url(#filter25_d_2146_31081)"><path fill="#24C5F7" d="M50.146 60.775h-8.292v1.742h8.292z"/></g><path fill="#24C5F7" d="M56.07 60.775h-4.524v1.742h4.523z" opacity=".25"/><g filter="url(#filter26_d_2146_31081)"><path fill="#24C5F7" d="M63.93 60.775H57.9v1.742h6.03z"/></g><path fill="#24C5F7" d="M69.854 60.775h-3.77v1.742h3.77z" opacity=".25"/><g filter="url(#filter27_d_2146_31081)"><path fill="#24C5F7" d="M84.5 60.775h-5.277v1.742H84.5z"/></g><path fill="#24C5F7" d="M76.276 60.775H71v1.742h5.277z" opacity=".25"/></g><path fill="#24C5F7" d="M44.546 29.42H35.5v1.742h9.046z" opacity=".25"/><g filter="url(#filter28_d_2146_31081)"><path fill="#24C5F7" d="M56.07 29.42h-9.8v1.742h9.8z"/></g><path fill="#24C5F7" d="M65.439 29.42H57.9v1.742h7.538z" opacity=".25"/><g filter="url(#filter29_d_2146_31081)"><path fill="#24C5F7" d="M84.5 29.42H71.685v1.742H84.5z"/></g><path fill="#24C5F7" d="M70.177 29.42h-3.015v1.742h3.015zM84.5 15.484h-4.523v1.742H84.5z" opacity=".25"/><g filter="url(#filter30_d_2146_31081)"><path fill="#24C5F7" d="M78.146 15.484h-8.292v1.742h8.292z"/></g><path fill="#24C5F7" d="M68.454 15.484H63.93v1.742h4.523z" opacity=".25"/><g filter="url(#filter31_d_2146_31081)"><path fill="#24C5F7" d="M62.1 15.484h-6.031v1.742H62.1z"/></g><path fill="#24C5F7" d="M53.915 15.484h-3.769v1.742h3.77zM40.777 15.484H35.5v1.742h5.277zM48.315 15.484h-5.277v1.742h5.277zM84.5 18.968h-9.046v1.742H84.5zM73.73 18.968h-9.8v1.742h9.8zM62.1 18.968h-7.538v1.742H62.1z" opacity=".25"/><g filter="url(#filter32_d_2146_31081)"><path fill="#24C5F7" d="M48.315 18.968H35.5v1.742h12.815z"/></g><path fill="#24C5F7" d="M52.838 18.968h-3.015v1.742h3.015z" opacity=".25"/><g opacity=".4"><path fill="#24C5F7" d="M84.5 53.807h-9.046v1.742H84.5z" opacity=".25"/><g filter="url(#filter33_d_2146_31081)"><path fill="#24C5F7" d="M73.73 53.807h-9.8v1.742h9.8z"/></g><path fill="#24C5F7" d="M62.1 53.807h-7.538v1.742H62.1z" opacity=".25"/><g filter="url(#filter34_d_2146_31081)"><path fill="#24C5F7" d="M48.315 53.807H35.5v1.742h12.815z"/></g><path fill="#24C5F7" d="M52.838 53.807h-3.015v1.742h3.015z" opacity=".25"/></g></g><path stroke="url(#paint14_linear_2146_31081)" stroke-width="2" d="m35 35.5-8 31 32 26.118"/><path stroke="url(#paint15_linear_2146_31081)" stroke-width="2" d="M34.5 35 64 66.5"/><circle cx="34.916" cy="35.916" r="2.916" fill="url(#paint16_linear_2146_31081)" transform="rotate(180 34.916 35.916)"/><circle cx="48.975" cy="92.603" r="10.41" fill="url(#paint17_radial_2146_31081)" opacity=".3" transform="rotate(-167 48.975 92.603)"/><g filter="url(#filter35_d_2146_31081)"><circle cx="58.617" cy="92.561" r="3" fill="url(#paint18_radial_2146_31081)" transform="rotate(-167 58.617 92.561)"/></g><circle cx="26.797" cy="65.797" r="4" fill="url(#paint19_linear_2146_31081)" transform="rotate(-167 26.797 65.797)"/><path fill="#fff" fill-opacity=".2" d="M30.73 66.397a3.84 3.84 0 0 1-.078.485 3.81 3.81 0 0 1-7.461-.183c.246.18.512.33.794.446a3.81 3.81 0 0 0 6.744-.748Z"/><defs><filter id="filter0_d_2146_31081" width="8.3" height="9.822" x="95.1" y="55.4" color-interpolation-filters="sRGB" filterUnits="userSpaceOnUse"><feFlood flood-opacity="0" result="BackgroundImageFix"/><feColorMatrix in="SourceAlpha" result="hardAlpha" type="matrix" values="0 0 0 0 0 0 0 0 0 0 0 0 0 0 0 0 0 0 127 0"/><feOffset/><feGaussianBlur stdDeviation="1.7"/><feColorMatrix type="matrix" values="0 0 0 0 0.180392 0 0 0 0 0.811765 0 0 0 0 0.976471 0 0 0 1 0"/><feBlend in2="BackgroundImageFix" mode="normal" result="effect1_dropShadow_2146_31081"/><feBlend in="SourceGraphic" in2="effect1_dropShadow_2146_31081" mode="normal" result="shape"/></filter><filter id="filter1_d_2146_31081" width="12.523" height="9.742" x="75.977" y="8" color-interpolation-filters="sRGB" filterUnits="userSpaceOnUse"><feFlood flood-opacity="0" result="BackgroundImageFix"/><feColorMatrix in="SourceAlpha" result="hardAlpha" type="matrix" values="0 0 0 0 0 0 0 0 0 0 0 0 0 0 0 0 0 0 127 0"/><feOffset/><feGaussianBlur stdDeviation="2"/><feColorMatrix type="matrix" values="0 0 0 0 0.141176 0 0 0 0 0.772549 0 0 0 0 0.968627 0 0 0 0.6 0"/><feBlend in2="BackgroundImageFix" mode="normal" result="effect1_dropShadow_2146_31081"/><feBlend in="SourceGraphic" in2="effect1_dropShadow_2146_31081" mode="normal" result="shape"/></filter><filter id="filter2_d_2146_31081" width="12.523" height="9.742" x="43.885" y="8" color-interpolation-filters="sRGB" filterUnits="userSpaceOnUse"><feFlood flood-opacity="0" result="BackgroundImageFix"/><feColorMatrix in="SourceAlpha" result="hardAlpha" type="matrix" values="0 0 0 0 0 0 0 0 0 0 0 0 0 0 0 0 0 0 127 0"/><feOffset/><feGaussianBlur stdDeviation="2"/><feColorMatrix type="matrix" values="0 0 0 0 0.141176 0 0 0 0 0.772549 0 0 0 0 0.968627 0 0 0 0.6 0"/><feBlend in2="BackgroundImageFix" mode="normal" result="effect1_dropShadow_2146_31081"/><feBlend in="SourceGraphic" in2="effect1_dropShadow_2146_31081" mode="normal" result="shape"/></filter><filter id="filter3_d_2146_31081" width="12.523" height="9.742" x="63.592" y="42.839" color-interpolation-filters="sRGB" filterUnits="userSpaceOnUse"><feFlood flood-opacity="0" result="BackgroundImageFix"/><feColorMatrix in="SourceAlpha" result="hardAlpha" type="matrix" values="0 0 0 0 0 0 0 0 0 0 0 0 0 0 0 0 0 0 127 0"/><feOffset/><feGaussianBlur stdDeviation="2"/><feColorMatrix type="matrix" values="0 0 0 0 0.141176 0 0 0 0 0.772549 0 0 0 0 0.968627 0 0 0 0.6 0"/><feBlend in2="BackgroundImageFix" mode="normal" result="effect1_dropShadow_2146_31081"/><feBlend in="SourceGraphic" in2="effect1_dropShadow_2146_31081" mode="normal" result="shape"/></filter><filter id="filter4_d_2146_31081" width="12.523" height="9.742" x="44.208" y="42.839" color-interpolation-filters="sRGB" filterUnits="userSpaceOnUse"><feFlood flood-opacity="0" result="BackgroundImageFix"/><feColorMatrix in="SourceAlpha" result="hardAlpha" type="matrix" values="0 0 0 0 0 0 0 0 0 0 0 0 0 0 0 0 0 0 127 0"/><feOffset/><feGaussianBlur stdDeviation="2"/><feColorMatrix type="matrix" values="0 0 0 0 0.141176 0 0 0 0 0.772549 0 0 0 0 0.968627 0 0 0 0.6 0"/><feBlend in2="BackgroundImageFix" mode="normal" result="effect1_dropShadow_2146_31081"/><feBlend in="SourceGraphic" in2="effect1_dropShadow_2146_31081" mode="normal" result="shape"/></filter><filter id="filter5_d_2146_31081" width="9.508" height="9.742" x="56.592" y="32.388" color-interpolation-filters="sRGB" filterUnits="userSpaceOnUse"><feFlood flood-opacity="0" result="BackgroundImageFix"/><feColorMatrix in="SourceAlpha" result="hardAlpha" type="matrix" values="0 0 0 0 0 0 0 0 0 0 0 0 0 0 0 0 0 0 127 0"/><feOffset/><feGaussianBlur stdDeviation="2"/><feColorMatrix type="matrix" values="0 0 0 0 0.141176 0 0 0 0 0.772549 0 0 0 0 0.968627 0 0 0 0.6 0"/><feBlend in2="BackgroundImageFix" mode="normal" result="effect1_dropShadow_2146_31081"/><feBlend in="SourceGraphic" in2="effect1_dropShadow_2146_31081" mode="normal" result="shape"/></filter><filter id="filter6_d_2146_31081" width="12.523" height="9.742" x="43.885" y="32.388" color-interpolation-filters="sRGB" filterUnits="userSpaceOnUse"><feFlood flood-opacity="0" result="BackgroundImageFix"/><feColorMatrix in="SourceAlpha" result="hardAlpha" type="matrix" values="0 0 0 0 0 0 0 0 0 0 0 0 0 0 0 0 0 0 127 0"/><feOffset/><feGaussianBlur stdDeviation="2"/><feColorMatrix type="matrix" values="0 0 0 0 0.141176 0 0 0 0 0.772549 0 0 0 0 0.968627 0 0 0 0.6 0"/><feBlend in2="BackgroundImageFix" mode="normal" result="effect1_dropShadow_2146_31081"/><feBlend in="SourceGraphic" in2="effect1_dropShadow_2146_31081" mode="normal" result="shape"/></filter><filter id="filter7_d_2146_31081" width="12.523" height="9.742" x="63.269" y="32.388" color-interpolation-filters="sRGB" filterUnits="userSpaceOnUse"><feFlood flood-opacity="0" result="BackgroundImageFix"/><feColorMatrix in="SourceAlpha" result="hardAlpha" type="matrix" values="0 0 0 0 0 0 0 0 0 0 0 0 0 0 0 0 0 0 127 0"/><feOffset/><feGaussianBlur stdDeviation="2"/><feColorMatrix type="matrix" values="0 0 0 0 0.141176 0 0 0 0 0.772549 0 0 0 0 0.968627 0 0 0 0.6 0"/><feBlend in2="BackgroundImageFix" mode="normal" result="effect1_dropShadow_2146_31081"/><feBlend in="SourceGraphic" in2="effect1_dropShadow_2146_31081" mode="normal" result="shape"/></filter><filter id="filter8_d_2146_31081" width="16.292" height="9.742" x="65.854" y="35.872" color-interpolation-filters="sRGB" filterUnits="userSpaceOnUse"><feFlood flood-opacity="0" result="BackgroundImageFix"/><feColorMatrix in="SourceAlpha" result="hardAlpha" type="matrix" values="0 0 0 0 0 0 0 0 0 0 0 0 0 0 0 0 0 0 127 0"/><feOffset/><feGaussianBlur stdDeviation="2"/><feColorMatrix type="matrix" values="0 0 0 0 0.141176 0 0 0 0 0.772549 0 0 0 0 0.968627 0 0 0 0.6 0"/><feBlend in2="BackgroundImageFix" mode="normal" result="effect1_dropShadow_2146_31081"/><feBlend in="SourceGraphic" in2="effect1_dropShadow_2146_31081" mode="normal" result="shape"/></filter><filter id="filter9_d_2146_31081" width="13.277" height="9.742" x="39.038" y="35.872" color-interpolation-filters="sRGB" filterUnits="userSpaceOnUse"><feFlood flood-opacity="0" result="BackgroundImageFix"/><feColorMatrix in="SourceAlpha" result="hardAlpha" type="matrix" values="0 0 0 0 0 0 0 0 0 0 0 0 0 0 0 0 0 0 127 0"/><feOffset/><feGaussianBlur stdDeviation="2"/><feColorMatrix type="matrix" values="0 0 0 0 0.141176 0 0 0 0 0.772549 0 0 0 0 0.968627 0 0 0 0.6 0"/><feBlend in2="BackgroundImageFix" mode="normal" result="effect1_dropShadow_2146_31081"/><feBlend in="SourceGraphic" in2="effect1_dropShadow_2146_31081" mode="normal" result="shape"/></filter><filter id="filter10_d_2146_31081" width="17.046" height="9.742" x="71.454" y="39.355" color-interpolation-filters="sRGB" filterUnits="userSpaceOnUse"><feFlood flood-opacity="0" result="BackgroundImageFix"/><feColorMatrix in="SourceAlpha" result="hardAlpha" type="matrix" values="0 0 0 0 0 0 0 0 0 0 0 0 0 0 0 0 0 0 127 0"/><feOffset/><feGaussianBlur stdDeviation="2"/><feColorMatrix type="matrix" values="0 0 0 0 0.141176 0 0 0 0 0.772549 0 0 0 0 0.968627 0 0 0 0.6 0"/><feBlend in2="BackgroundImageFix" mode="normal" result="effect1_dropShadow_2146_31081"/><feBlend in="SourceGraphic" in2="effect1_dropShadow_2146_31081" mode="normal" result="shape"/></filter><filter id="filter11_d_2146_31081" width="15.539" height="9.742" x="50.562" y="39.355" color-interpolation-filters="sRGB" filterUnits="userSpaceOnUse"><feFlood flood-opacity="0" result="BackgroundImageFix"/><feColorMatrix in="SourceAlpha" result="hardAlpha" type="matrix" values="0 0 0 0 0 0 0 0 0 0 0 0 0 0 0 0 0 0 127 0"/><feOffset/><feGaussianBlur stdDeviation="2"/><feColorMatrix type="matrix" values="0 0 0 0 0.141176 0 0 0 0 0.772549 0 0 0 0 0.968627 0 0 0 0.6 0"/><feBlend in2="BackgroundImageFix" mode="normal" result="effect1_dropShadow_2146_31081"/><feBlend in="SourceGraphic" in2="effect1_dropShadow_2146_31081" mode="normal" result="shape"/></filter><filter id="filter12_d_2146_31081" width="17.046" height="9.742" x="59.392" y="60.576" color-interpolation-filters="sRGB" filterUnits="userSpaceOnUse"><feFlood flood-opacity="0" result="BackgroundImageFix"/><feColorMatrix in="SourceAlpha" result="hardAlpha" type="matrix" values="0 0 0 0 0 0 0 0 0 0 0 0 0 0 0 0 0 0 127 0"/><feOffset/><feGaussianBlur stdDeviation="2"/><feColorMatrix type="matrix" values="0 0 0 0 0.403922 0 0 0 0 0.843137 0 0 0 0 0.74902 0 0 0 0.600388 0"/><feBlend in2="BackgroundImageFix" mode="normal" result="effect1_dropShadow_2146_31081"/><feBlend in="SourceGraphic" in2="effect1_dropShadow_2146_31081" mode="normal" result="shape"/></filter><filter id="filter13_d_2146_31081" width="15.539" height="9.742" x="38.5" y="60.576" color-interpolation-filters="sRGB" filterUnits="userSpaceOnUse"><feFlood flood-opacity="0" result="BackgroundImageFix"/><feColorMatrix in="SourceAlpha" result="hardAlpha" type="matrix" values="0 0 0 0 0 0 0 0 0 0 0 0 0 0 0 0 0 0 127 0"/><feOffset/><feGaussianBlur stdDeviation="2"/><feColorMatrix type="matrix" values="0 0 0 0 0.403922 0 0 0 0 0.843137 0 0 0 0 0.74902 0 0 0 0.600388 0"/><feBlend in2="BackgroundImageFix" mode="normal" result="effect1_dropShadow_2146_31081"/><feBlend in="SourceGraphic" in2="effect1_dropShadow_2146_31081" mode="normal" result="shape"/></filter><filter id="filter14_d_2146_31081" width="11.015" height="9.742" x="33.761" y="60.576" color-interpolation-filters="sRGB" filterUnits="userSpaceOnUse"><feFlood flood-opacity="0" result="BackgroundImageFix"/><feColorMatrix in="SourceAlpha" result="hardAlpha" type="matrix" values="0 0 0 0 0 0 0 0 0 0 0 0 0 0 0 0 0 0 127 0"/><feOffset/><feGaussianBlur stdDeviation="2"/><feColorMatrix type="matrix" values="0 0 0 0 0.403922 0 0 0 0 0.843137 0 0 0 0 0.74902 0 0 0 0.600388 0"/><feBlend in2="BackgroundImageFix" mode="normal" result="effect1_dropShadow_2146_31081"/><feBlend in="SourceGraphic" in2="effect1_dropShadow_2146_31081" mode="normal" result="shape"/></filter><filter id="filter15_d_2146_31081" width="16.292" height="9.742" x="37.854" y="46.323" color-interpolation-filters="sRGB" filterUnits="userSpaceOnUse"><feFlood flood-opacity="0" result="BackgroundImageFix"/><feColorMatrix in="SourceAlpha" result="hardAlpha" type="matrix" values="0 0 0 0 0 0 0 0 0 0 0 0 0 0 0 0 0 0 127 0"/><feOffset/><feGaussianBlur stdDeviation="2"/><feColorMatrix type="matrix" values="0 0 0 0 0.141176 0 0 0 0 0.772549 0 0 0 0 0.968627 0 0 0 0.6 0"/><feBlend in2="BackgroundImageFix" mode="normal" result="effect1_dropShadow_2146_31081"/><feBlend in="SourceGraphic" in2="effect1_dropShadow_2146_31081" mode="normal" result="shape"/></filter><filter id="filter16_d_2146_31081" width="14.031" height="9.742" x="53.9" y="46.323" color-interpolation-filters="sRGB" filterUnits="userSpaceOnUse"><feFlood flood-opacity="0" result="BackgroundImageFix"/><feColorMatrix in="SourceAlpha" result="hardAlpha" type="matrix" values="0 0 0 0 0 0 0 0 0 0 0 0 0 0 0 0 0 0 127 0"/><feOffset/><feGaussianBlur stdDeviation="2"/><feColorMatrix type="matrix" values="0 0 0 0 0.141176 0 0 0 0 0.772549 0 0 0 0 0.968627 0 0 0 0.6 0"/><feBlend in2="BackgroundImageFix" mode="normal" result="effect1_dropShadow_2146_31081"/><feBlend in="SourceGraphic" in2="effect1_dropShadow_2146_31081" mode="normal" result="shape"/></filter><filter id="filter17_d_2146_31081" width="13.277" height="9.742" x="75.223" y="46.323" color-interpolation-filters="sRGB" filterUnits="userSpaceOnUse"><feFlood flood-opacity="0" result="BackgroundImageFix"/><feColorMatrix in="SourceAlpha" result="hardAlpha" type="matrix" values="0 0 0 0 0 0 0 0 0 0 0 0 0 0 0 0 0 0 127 0"/><feOffset/><feGaussianBlur stdDeviation="2"/><feColorMatrix type="matrix" values="0 0 0 0 0.141176 0 0 0 0 0.772549 0 0 0 0 0.968627 0 0 0 0.6 0"/><feBlend in2="BackgroundImageFix" mode="normal" result="effect1_dropShadow_2146_31081"/><feBlend in="SourceGraphic" in2="effect1_dropShadow_2146_31081" mode="normal" result="shape"/></filter><filter id="filter18_d_2146_31081" width="20.815" height="9.742" x="53.9" y="28.904" color-interpolation-filters="sRGB" filterUnits="userSpaceOnUse"><feFlood flood-opacity="0" result="BackgroundImageFix"/><feColorMatrix in="SourceAlpha" result="hardAlpha" type="matrix" values="0 0 0 0 0 0 0 0 0 0 0 0 0 0 0 0 0 0 127 0"/><feOffset/><feGaussianBlur stdDeviation="2"/><feColorMatrix type="matrix" values="0 0 0 0 0.141176 0 0 0 0 0.772549 0 0 0 0 0.968627 0 0 0 0.6 0"/><feBlend in2="BackgroundImageFix" mode="normal" result="effect1_dropShadow_2146_31081"/><feBlend in="SourceGraphic" in2="effect1_dropShadow_2146_31081" mode="normal" result="shape"/></filter><filter id="filter19_d_2146_31081" width="12.523" height="9.742" x="57.239" y="18.452" color-interpolation-filters="sRGB" filterUnits="userSpaceOnUse"><feFlood flood-opacity="0" result="BackgroundImageFix"/><feColorMatrix in="SourceAlpha" result="hardAlpha" type="matrix" values="0 0 0 0 0 0 0 0 0 0 0 0 0 0 0 0 0 0 127 0"/><feOffset/><feGaussianBlur stdDeviation="2"/><feColorMatrix type="matrix" values="0 0 0 0 0.141176 0 0 0 0 0.772549 0 0 0 0 0.968627 0 0 0 0.6 0"/><feBlend in2="BackgroundImageFix" mode="normal" result="effect1_dropShadow_2146_31081"/><feBlend in="SourceGraphic" in2="effect1_dropShadow_2146_31081" mode="normal" result="shape"/></filter><filter id="filter20_d_2146_31081" width="18.554" height="9.742" x="69.946" y="18.452" color-interpolation-filters="sRGB" filterUnits="userSpaceOnUse"><feFlood flood-opacity="0" result="BackgroundImageFix"/><feColorMatrix in="SourceAlpha" result="hardAlpha" type="matrix" values="0 0 0 0 0 0 0 0 0 0 0 0 0 0 0 0 0 0 127 0"/><feOffset/><feGaussianBlur stdDeviation="2"/><feColorMatrix type="matrix" values="0 0 0 0 0.141176 0 0 0 0 0.772549 0 0 0 0 0.968627 0 0 0 0.6 0"/><feBlend in2="BackgroundImageFix" mode="normal" result="effect1_dropShadow_2146_31081"/><feBlend in="SourceGraphic" in2="effect1_dropShadow_2146_31081" mode="normal" result="shape"/></filter><filter id="filter21_d_2146_31081" width="9.508" height="9.742" x="50.562" y="53.291" color-interpolation-filters="sRGB" filterUnits="userSpaceOnUse"><feFlood flood-opacity="0" result="BackgroundImageFix"/><feColorMatrix in="SourceAlpha" result="hardAlpha" type="matrix" values="0 0 0 0 0 0 0 0 0 0 0 0 0 0 0 0 0 0 127 0"/><feOffset/><feGaussianBlur stdDeviation="2"/><feColorMatrix type="matrix" values="0 0 0 0 0.141176 0 0 0 0 0.772549 0 0 0 0 0.968627 0 0 0 0.6 0"/><feBlend in2="BackgroundImageFix" mode="normal" result="effect1_dropShadow_2146_31081"/><feBlend in="SourceGraphic" in2="effect1_dropShadow_2146_31081" mode="normal" result="shape"/></filter><filter id="filter22_d_2146_31081" width="9.508" height="9.742" x="53.9" y="53.291" color-interpolation-filters="sRGB" filterUnits="userSpaceOnUse"><feFlood flood-opacity="0" result="BackgroundImageFix"/><feColorMatrix in="SourceAlpha" result="hardAlpha" type="matrix" values="0 0 0 0 0 0 0 0 0 0 0 0 0 0 0 0 0 0 127 0"/><feOffset/><feGaussianBlur stdDeviation="2"/><feColorMatrix type="matrix" values="0 0 0 0 0.141176 0 0 0 0 0.772549 0 0 0 0 0.968627 0 0 0 0.6 0"/><feBlend in2="BackgroundImageFix" mode="normal" result="effect1_dropShadow_2146_31081"/><feBlend in="SourceGraphic" in2="effect1_dropShadow_2146_31081" mode="normal" result="shape"/></filter><filter id="filter23_d_2146_31081" width="12.523" height="9.742" x="63.592" y="53.291" color-interpolation-filters="sRGB" filterUnits="userSpaceOnUse"><feFlood flood-opacity="0" result="BackgroundImageFix"/><feColorMatrix in="SourceAlpha" result="hardAlpha" type="matrix" values="0 0 0 0 0 0 0 0 0 0 0 0 0 0 0 0 0 0 127 0"/><feOffset/><feGaussianBlur stdDeviation="2"/><feColorMatrix type="matrix" values="0 0 0 0 0.141176 0 0 0 0 0.772549 0 0 0 0 0.968627 0 0 0 0.6 0"/><feBlend in2="BackgroundImageFix" mode="normal" result="effect1_dropShadow_2146_31081"/><feBlend in="SourceGraphic" in2="effect1_dropShadow_2146_31081" mode="normal" result="shape"/></filter><filter id="filter24_d_2146_31081" width="14.031" height="9.742" x="53.9" y="21.936" color-interpolation-filters="sRGB" filterUnits="userSpaceOnUse"><feFlood flood-opacity="0" result="BackgroundImageFix"/><feColorMatrix in="SourceAlpha" result="hardAlpha" type="matrix" values="0 0 0 0 0 0 0 0 0 0 0 0 0 0 0 0 0 0 127 0"/><feOffset/><feGaussianBlur stdDeviation="2"/><feColorMatrix type="matrix" values="0 0 0 0 0.141176 0 0 0 0 0.772549 0 0 0 0 0.968627 0 0 0 0.6 0"/><feBlend in2="BackgroundImageFix" mode="normal" result="effect1_dropShadow_2146_31081"/><feBlend in="SourceGraphic" in2="effect1_dropShadow_2146_31081" mode="normal" result="shape"/></filter><filter id="filter25_d_2146_31081" width="16.292" height="9.742" x="37.854" y="56.775" color-interpolation-filters="sRGB" filterUnits="userSpaceOnUse"><feFlood flood-opacity="0" result="BackgroundImageFix"/><feColorMatrix in="SourceAlpha" result="hardAlpha" type="matrix" values="0 0 0 0 0 0 0 0 0 0 0 0 0 0 0 0 0 0 127 0"/><feOffset/><feGaussianBlur stdDeviation="2"/><feColorMatrix type="matrix" values="0 0 0 0 0.403922 0 0 0 0 0.843137 0 0 0 0 0.74902 0 0 0 0.600388 0"/><feBlend in2="BackgroundImageFix" mode="normal" result="effect1_dropShadow_2146_31081"/><feBlend in="SourceGraphic" in2="effect1_dropShadow_2146_31081" mode="normal" result="shape"/></filter><filter id="filter26_d_2146_31081" width="14.031" height="9.742" x="53.9" y="56.775" color-interpolation-filters="sRGB" filterUnits="userSpaceOnUse"><feFlood flood-opacity="0" result="BackgroundImageFix"/><feColorMatrix in="SourceAlpha" result="hardAlpha" type="matrix" values="0 0 0 0 0 0 0 0 0 0 0 0 0 0 0 0 0 0 127 0"/><feOffset/><feGaussianBlur stdDeviation="2"/><feColorMatrix type="matrix" values="0 0 0 0 0.403922 0 0 0 0 0.843137 0 0 0 0 0.74902 0 0 0 0.600388 0"/><feBlend in2="BackgroundImageFix" mode="normal" result="effect1_dropShadow_2146_31081"/><feBlend in="SourceGraphic" in2="effect1_dropShadow_2146_31081" mode="normal" result="shape"/></filter><filter id="filter27_d_2146_31081" width="13.277" height="9.742" x="75.223" y="56.775" color-interpolation-filters="sRGB" filterUnits="userSpaceOnUse"><feFlood flood-opacity="0" result="BackgroundImageFix"/><feColorMatrix in="SourceAlpha" result="hardAlpha" type="matrix" values="0 0 0 0 0 0 0 0 0 0 0 0 0 0 0 0 0 0 127 0"/><feOffset/><feGaussianBlur stdDeviation="2"/><feColorMatrix type="matrix" values="0 0 0 0 0.403922 0 0 0 0 0.843137 0 0 0 0 0.74902 0 0 0 0.600388 0"/><feBlend in2="BackgroundImageFix" mode="normal" result="effect1_dropShadow_2146_31081"/><feBlend in="SourceGraphic" in2="effect1_dropShadow_2146_31081" mode="normal" result="shape"/></filter><filter id="filter28_d_2146_31081" width="17.8" height="9.742" x="42.269" y="25.42" color-interpolation-filters="sRGB" filterUnits="userSpaceOnUse"><feFlood flood-opacity="0" result="BackgroundImageFix"/><feColorMatrix in="SourceAlpha" result="hardAlpha" type="matrix" values="0 0 0 0 0 0 0 0 0 0 0 0 0 0 0 0 0 0 127 0"/><feOffset/><feGaussianBlur stdDeviation="2"/><feColorMatrix type="matrix" values="0 0 0 0 0.141176 0 0 0 0 0.772549 0 0 0 0 0.968627 0 0 0 0.6 0"/><feBlend in2="BackgroundImageFix" mode="normal" result="effect1_dropShadow_2146_31081"/><feBlend in="SourceGraphic" in2="effect1_dropShadow_2146_31081" mode="normal" result="shape"/></filter><filter id="filter29_d_2146_31081" width="20.815" height="9.742" x="67.685" y="25.42" color-interpolation-filters="sRGB" filterUnits="userSpaceOnUse"><feFlood flood-opacity="0" result="BackgroundImageFix"/><feColorMatrix in="SourceAlpha" result="hardAlpha" type="matrix" values="0 0 0 0 0 0 0 0 0 0 0 0 0 0 0 0 0 0 127 0"/><feOffset/><feGaussianBlur stdDeviation="2"/><feColorMatrix type="matrix" values="0 0 0 0 0.141176 0 0 0 0 0.772549 0 0 0 0 0.968627 0 0 0 0.6 0"/><feBlend in2="BackgroundImageFix" mode="normal" result="effect1_dropShadow_2146_31081"/><feBlend in="SourceGraphic" in2="effect1_dropShadow_2146_31081" mode="normal" result="shape"/></filter><filter id="filter30_d_2146_31081" width="16.292" height="9.742" x="65.854" y="11.484" color-interpolation-filters="sRGB" filterUnits="userSpaceOnUse"><feFlood flood-opacity="0" result="BackgroundImageFix"/><feColorMatrix in="SourceAlpha" result="hardAlpha" type="matrix" values="0 0 0 0 0 0 0 0 0 0 0 0 0 0 0 0 0 0 127 0"/><feOffset/><feGaussianBlur stdDeviation="2"/><feColorMatrix type="matrix" values="0 0 0 0 0.141176 0 0 0 0 0.772549 0 0 0 0 0.968627 0 0 0 0.6 0"/><feBlend in2="BackgroundImageFix" mode="normal" result="effect1_dropShadow_2146_31081"/><feBlend in="SourceGraphic" in2="effect1_dropShadow_2146_31081" mode="normal" result="shape"/></filter><filter id="filter31_d_2146_31081" width="14.031" height="9.742" x="52.069" y="11.484" color-interpolation-filters="sRGB" filterUnits="userSpaceOnUse"><feFlood flood-opacity="0" result="BackgroundImageFix"/><feColorMatrix in="SourceAlpha" result="hardAlpha" type="matrix" values="0 0 0 0 0 0 0 0 0 0 0 0 0 0 0 0 0 0 127 0"/><feOffset/><feGaussianBlur stdDeviation="2"/><feColorMatrix type="matrix" values="0 0 0 0 0.141176 0 0 0 0 0.772549 0 0 0 0 0.968627 0 0 0 0.6 0"/><feBlend in2="BackgroundImageFix" mode="normal" result="effect1_dropShadow_2146_31081"/><feBlend in="SourceGraphic" in2="effect1_dropShadow_2146_31081" mode="normal" result="shape"/></filter><filter id="filter32_d_2146_31081" width="20.815" height="9.742" x="31.5" y="14.968" color-interpolation-filters="sRGB" filterUnits="userSpaceOnUse"><feFlood flood-opacity="0" result="BackgroundImageFix"/><feColorMatrix in="SourceAlpha" result="hardAlpha" type="matrix" values="0 0 0 0 0 0 0 0 0 0 0 0 0 0 0 0 0 0 127 0"/><feOffset/><feGaussianBlur stdDeviation="2"/><feColorMatrix type="matrix" values="0 0 0 0 0.141176 0 0 0 0 0.772549 0 0 0 0 0.968627 0 0 0 0.6 0"/><feBlend in2="BackgroundImageFix" mode="normal" result="effect1_dropShadow_2146_31081"/><feBlend in="SourceGraphic" in2="effect1_dropShadow_2146_31081" mode="normal" result="shape"/></filter><filter id="filter33_d_2146_31081" width="17.8" height="9.742" x="59.931" y="49.807" color-interpolation-filters="sRGB" filterUnits="userSpaceOnUse"><feFlood flood-opacity="0" result="BackgroundImageFix"/><feColorMatrix in="SourceAlpha" result="hardAlpha" type="matrix" values="0 0 0 0 0 0 0 0 0 0 0 0 0 0 0 0 0 0 127 0"/><feOffset/><feGaussianBlur stdDeviation="2"/><feColorMatrix type="matrix" values="0 0 0 0 0.141176 0 0 0 0 0.772549 0 0 0 0 0.968627 0 0 0 0.6 0"/><feBlend in2="BackgroundImageFix" mode="normal" result="effect1_dropShadow_2146_31081"/><feBlend in="SourceGraphic" in2="effect1_dropShadow_2146_31081" mode="normal" result="shape"/></filter><filter id="filter34_d_2146_31081" width="20.815" height="9.742" x="31.5" y="49.807" color-interpolation-filters="sRGB" filterUnits="userSpaceOnUse"><feFlood flood-opacity="0" result="BackgroundImageFix"/><feColorMatrix in="SourceAlpha" result="hardAlpha" type="matrix" values="0 0 0 0 0 0 0 0 0 0 0 0 0 0 0 0 0 0 127 0"/><feOffset/><feGaussianBlur stdDeviation="2"/><feColorMatrix type="matrix" values="0 0 0 0 0.141176 0 0 0 0 0.772549 0 0 0 0 0.968627 0 0 0 0.6 0"/><feBlend in2="BackgroundImageFix" mode="normal" result="effect1_dropShadow_2146_31081"/><feBlend in="SourceGraphic" in2="effect1_dropShadow_2146_31081" mode="normal" result="shape"/></filter><filter id="filter35_d_2146_31081" width="14.001" height="14.001" x="51.617" y="85.561" color-interpolation-filters="sRGB" filterUnits="userSpaceOnUse"><feFlood flood-opacity="0" result="BackgroundImageFix"/><feColorMatrix in="SourceAlpha" result="hardAlpha" type="matrix" values="0 0 0 0 0 0 0 0 0 0 0 0 0 0 0 0 0 0 127 0"/><feOffset/><feGaussianBlur stdDeviation="2"/><feColorMatrix type="matrix" values="0 0 0 0 0.180392 0 0 0 0 0.811765 0 0 0 0 0.976471 0 0 0 1 0"/><feBlend in2="BackgroundImageFix" mode="normal" result="effect1_dropShadow_2146_31081"/><feBlend in="SourceGraphic" in2="effect1_dropShadow_2146_31081" mode="normal" result="shape"/></filter><linearGradient id="paint0_linear_2146_31081" x1="24.712" x2="64.171" y1="15.334" y2="108.902" gradientUnits="userSpaceOnUse"><stop stop-color="#00BAFF"/><stop offset="1" stop-color="#0C121E"/></linearGradient><linearGradient id="paint1_linear_2146_31081" x1="18.481" x2="64.324" y1="7.241" y2="117.046" gradientUnits="userSpaceOnUse"><stop stop-color="#00BAFF"/><stop offset="1" stop-color="#0C121E"/></linearGradient><linearGradient id="paint2_linear_2146_31081" x1="-7.502" x2="84.364" y1="87.281" y2="118.781" gradientUnits="userSpaceOnUse"><stop stop-color="#0F192B"/><stop offset="1" stop-color="#0C1421"/></linearGradient><linearGradient id="paint3_linear_2146_31081" x1="-7.502" x2="84.364" y1="87.281" y2="118.781" gradientUnits="userSpaceOnUse"><stop stop-color="#0F192B"/><stop offset="1" stop-color="#0C1421"/></linearGradient><linearGradient id="paint5_linear_2146_31081" x1="78" x2="46.493" y1="86" y2="90.953" gradientUnits="userSpaceOnUse"><stop stop-color="#34D2FB" stop-opacity="0"/><stop offset=".306" stop-color="#36D3FB"/><stop offset="1" stop-color="#3BD6FC" stop-opacity="0"/></linearGradient><linearGradient id="paint6_linear_2146_31081" x1="79.5" x2="54.744" y1="71" y2="90.447" gradientUnits="userSpaceOnUse"><stop stop-color="#34D2FB" stop-opacity="0"/><stop offset=".306" stop-color="#36D3FB"/><stop offset="1" stop-color="#3BD6FC" stop-opacity="0"/></linearGradient><linearGradient id="paint7_linear_2146_31081" x1="90" x2="54.5" y1="77.5" y2="68" gradientUnits="userSpaceOnUse"><stop stop-color="#34D2FB" stop-opacity="0"/><stop offset=".261" stop-color="#36D3FB" stop-opacity=".67"/><stop offset="1" stop-color="#3BD6FC" stop-opacity="0"/></linearGradient><linearGradient id="paint8_linear_2146_31081" x1="-25.227" x2="4.038" y1="22.708" y2="134.632" gradientUnits="userSpaceOnUse"><stop stop-color="#22C8F6"/><stop offset="1" stop-color="#637BFF"/></linearGradient><linearGradient id="paint9_linear_2146_31081" x1="36.5" x2="50.336" y1="55.5" y2="96.244" gradientUnits="userSpaceOnUse"><stop stop-color="#4EA0F2"/><stop offset="1" stop-color="#133764"/></linearGradient><linearGradient id="paint10_linear_2146_31081" x1="17.761" x2="104.874" y1="97.51" y2="29.735" gradientUnits="userSpaceOnUse"><stop stop-color="#4EA0F2"/><stop offset="1" stop-color="#133764"/></linearGradient><linearGradient id="paint11_linear_2146_31081" x1="28.375" x2="61.651" y1="20.641" y2="103.093" gradientUnits="userSpaceOnUse"><stop stop-color="#00BAFF"/><stop offset="1" stop-color="#0C121E"/></linearGradient><linearGradient id="paint14_linear_2146_31081" x1="39" x2="-5" y1="54.118" y2="68" gradientUnits="userSpaceOnUse"><stop stop-color="#45E6FB"/><stop offset="1" stop-color="#21C8F6" stop-opacity=".01"/></linearGradient><linearGradient id="paint15_linear_2146_31081" x1="34" x2="63.5" y1="35" y2="62" gradientUnits="userSpaceOnUse"><stop stop-color="#45E6FB"/><stop offset="1" stop-color="#21C8F6" stop-opacity=".01"/></linearGradient><linearGradient id="paint16_linear_2146_31081" x1="32.073" x2="32.073" y1="33" y2="38.685" gradientUnits="userSpaceOnUse"><stop stop-color="#21C8F6"/><stop offset="1" stop-color="#637BFF"/></linearGradient><linearGradient id="paint19_linear_2146_31081" x1="22.897" x2="22.897" y1="61.797" y2="69.597" gradientUnits="userSpaceOnUse"><stop stop-color="#21C8F6"/><stop offset="1" stop-color="#637BFF"/></linearGradient><radialGradient id="paint4_radial_2146_31081" cx="0" cy="0" r="1" gradientTransform="matrix(0 45.6884 -24.9579 0 80.281 52.21)" gradientUnits="userSpaceOnUse"><stop stop-color="#263A5E"/><stop offset="1" stop-color="#0C1321"/></radialGradient><radialGradient id="paint12_radial_2146_31081" cx="0" cy="0" r="1" gradientTransform="matrix(0 -38.5 31.5417 0 64 105)" gradientUnits="userSpaceOnUse"><stop stop-color="#AEF3FF"/><stop offset="1" stop-color="#76E2FF" stop-opacity=".01"/></radialGradient><radialGradient id="paint13_radial_2146_31081" cx="0" cy="0" r="1" gradientTransform="matrix(2.0672 0 0 1.026 99.25 60.311)" gradientUnits="userSpaceOnUse"><stop stop-color="#21C8F6"/><stop offset="1" stop-color="#4BDEFF"/></radialGradient><radialGradient id="paint17_radial_2146_31081" cx="0" cy="0" r="1" gradientTransform="translate(48.975 92.603) scale(9.59771)" gradientUnits="userSpaceOnUse"><stop stop-color="#257EDD"/><stop offset="1" stop-color="#267EDC" stop-opacity=".01"/></radialGradient><radialGradient id="paint18_radial_2146_31081" cx="0" cy="0" r="1" gradientTransform="translate(58.617 92.561) scale(4.104)" gradientUnits="userSpaceOnUse"><stop stop-color="#21C8F6"/><stop offset="1" stop-color="#4BDEFF"/></radialGradient></defs></svg>